<?xml version="1.0" ?><svg viewBox="0 0 512 512" xmlns="http://www.w3.org/2000/svg"><g id="Zz_Plant"><path d="M335.3574,129.0767a37.2218,37.2218,0,0,0,18.6655-5.1509,35.8438,35.8438,0,0,0,17.1915-22.72,2.5,2.5,0,0,0-1.7154-2.9439,35.8426,35.8426,0,0,0-28.2427,3.7559,37.44,37.44,0,0,0-12.7084,12.104,37.4371,37.4371,0,0,0-5.0894-16.7959,35.8428,35.8428,0,0,0-22.72-17.1919,2.4966,2.4966,0,0,0-2.9439,1.7153,35.8435,35.8435,0,0,0,3.7564,28.2432,36.5185,36.5185,0,0,0,18.2283,15.8143c-1.4566,7.6105-4.0353,22.7914-6.1023,44.11-.0768.7919-.153,1.6013-.2289,2.4188a47.2607,47.2607,0,0,0-6.8756-10.7166c-8.1822-9.6055-19.6109-15.4122-31.356-15.9312a2.5147,2.5147,0,0,0-2.5937,2.209c-1.356,11.6787,2.5586,23.8857,10.74,33.4907a44.6986,44.6986,0,0,0,28.28,15.66c-.6484,11.9866-1.0563,25.48-1.002,40.1963a47.38,47.38,0,0,0-7.2248-9.2786c-8.9223-8.9218-20.78-13.8017-32.5268-13.3784a2.5,2.5,0,0,0-2.4092,2.4092c-.42,11.749,4.4565,23.605,13.3789,32.5269a44.7169,44.7169,0,0,0,29.3394,13.3557c.3732,9.3423.9468,19.0466,1.7659,29.0578H199.0358c.8191-10.0112,1.3927-19.7155,1.7659-29.0578a44.7188,44.7188,0,0,0,29.3394-13.3557c8.9224-8.9219,13.7988-20.7779,13.3789-32.5269a2.5,2.5,0,0,0-2.4092-2.4092c-11.749-.416-23.6059,4.4566-32.5268,13.3784a47.38,47.38,0,0,0-7.2248,9.2786c.0543-14.7165-.3536-28.21-1.002-40.1963a44.6986,44.6986,0,0,0,28.28-15.66c8.1816-9.605,12.0962-21.812,10.74-33.4907a2.501,2.501,0,0,0-2.5937-2.209c-11.7451.519-23.1738,6.3257-31.356,15.9312a47.2592,47.2592,0,0,0-6.8755,10.7168c-.0759-.8177-.1522-1.6271-.229-2.419-2.067-21.3186-4.6457-36.5-6.1023-44.11a36.5185,36.5185,0,0,0,18.2283-15.8143,35.8435,35.8435,0,0,0,3.7564-28.2432,2.4953,2.4953,0,0,0-2.9439-1.7153,35.8428,35.8428,0,0,0-22.72,17.1919,37.4371,37.4371,0,0,0-5.0894,16.7959,37.44,37.44,0,0,0-12.7084-12.104,35.8389,35.8389,0,0,0-28.2427-3.7559,2.5,2.5,0,0,0-1.7154,2.9439,35.8438,35.8438,0,0,0,17.1915,22.72,37.2167,37.2167,0,0,0,18.6655,5.1509,33.5012,33.5012,0,0,0,6.8743-.7168c1.4442,7.6906,3.913,22.4934,5.8679,42.7246.0379.393.0754.8012.1132,1.2007a47.391,47.391,0,0,0-7.9306-8.6563c-9.606-8.1816-21.8086-12.0967-33.4912-10.74a2.5,2.5,0,0,0-2.209,2.5937c.5195,11.7456,6.3262,23.1743,15.9316,31.356a44.9311,44.9311,0,0,0,28.9058,11.0034c.2256,0,.4509-.0155.6764-.0193.6467,12.0178,1.0472,25.5759.9738,40.3745a47.2642,47.2642,0,0,0-7.7083-10.1321c-8.9219-8.9218-20.7715-13.8017-32.5269-13.3784a2.5,2.5,0,0,0-2.4092,2.4092c-.42,11.7485,4.4566,23.6045,13.379,32.5269a44.8112,44.8112,0,0,0,28.7067,13.323c-.3779,9.3474-.962,19.0658-1.7932,29.09H164.5151a4.5,4.5,0,0,0-4.4858,4.1436l-2.2051,27.7329a127.9188,127.9188,0,0,0,27.8921,90.585l12.6514,15.75a4.5006,4.5006,0,0,0,3.5083,1.6816H310.124a4.5006,4.5006,0,0,0,3.5083-1.6816l12.6514-15.75a127.9193,127.9193,0,0,0,27.8921-90.5855L351.9707,296.18a4.5,4.5,0,0,0-4.4858-4.1436H321.9963q-1.2444-15.0028-1.791-29.0907a44.8143,44.8143,0,0,0,28.7053-13.3228c8.9224-8.9224,13.7989-20.7784,13.379-32.5269a2.5,2.5,0,0,0-2.4092-2.4092c-11.7515-.416-23.6055,4.4566-32.5269,13.3784a47.2591,47.2591,0,0,0-7.7063,10.1287c-.067-14.56.3307-28.0823,1.0021-40.37.2155.0034.43.0184.6461.0184a44.9338,44.9338,0,0,0,28.9058-11.0034c9.6054-8.1817,15.4121-19.61,15.9316-31.356a2.5,2.5,0,0,0-2.209-2.5937c-11.6787-1.356-23.8852,2.5586-33.4912,10.74a47.4041,47.4041,0,0,0-7.8788,8.58c1.9758-20.8672,4.4814-36.0352,5.9373-43.8472A33.4625,33.4625,0,0,0,335.3574,129.0767Zm9.8467,195.5488a119.0575,119.0575,0,0,1-8.5013,54.7078H175.2972a119.0575,119.0575,0,0,1-8.5013-54.7078l1.8755-23.5894H194.13l.0109.0005.0052-.0005H317.8542l.0052.0005.0109-.0005h25.4583Z"/></g></svg>